<svg xmlns="http://www.w3.org/2000/svg" viewBox="0 0 560 170" width="560" height="170" role="img" aria-label="Nilo">
<title>Nilo</title>
<rect width="560" height="170" fill="#F2E9D8"/><g transform="translate(16 25)"><rect x="4" y="4" width="112" height="112" rx="18" fill="none" stroke="#1B3A4C" stroke-width="8"/>
  <path d="M24.0,14.0 L106.0,14.0 L101.4,101.4 L23.2,96.8 L27.8,27.8 L87.6,32.4 L83.0,83.0 L41.6,78.4" fill="none" stroke="#B07D1F" stroke-width="5" stroke-linejoin="round" stroke-linecap="round"/>
  <polygon points="71.1,64.6 64.6,71.1 55.4,71.1 48.9,64.6 48.9,55.4 55.4,48.9 64.6,48.9 71.1,55.4" fill="#1F8F86"/></g>
<g transform="translate(158 -40) scale(1)">
  <path d="M55.40 200L3.40 200L3.40 178L12.40 178L12.40 141.40L2.40 141.40L2.40 119.40L44.40 119.40L44.40 130.20Q51 124.20 58.40 121Q67.20 117.40 77 117.40Q89.40 117.40 97 124.40Q104.60 131.40 104.60 146L104.60 178L112.60 178L112.60 200L60.60 200L60.60 178L69.60 178L69.60 155Q69.60 148.60 67.30 146Q65 143.40 60.40 143.40Q56.40 143.40 52.40 145.40Q49.60 146.80 47.40 148.80L47.40 178L55.40 178" fill="#1B3A4C"/>
  <path d="M176.60 200L124.60 200L124.60 178L133.60 178L133.60 141.40L123.60 141.40L123.60 119.40L168.60 119.40L168.60 178L176.60 178" fill="#1B3A4C"/>
  <path d="M150.9,59.804999999999986 C156.1731,76.21019999999999 171.9924,87.81102000000001 171.9924,97.30260000000001 A21.092400000000005,21.092400000000005 0 1 1 129.8076,97.30260000000001 C129.8076,87.81102000000001 145.6269,76.21019999999999 150.9,59.804999999999986 Z" fill="#1F8F86"/>
  <path d="M241.40 200L188.40 200L188.40 178L197.40 178L197.40 105.40L187.40 105.40L187.40 83.40L232.40 83.40L232.40 178L241.40 178" fill="#1B3A4C"/>
  <path d="M300.60 202Q286.60 202 276.10 196.70Q265.60 191.40 259.70 181.80Q253.80 172.20 253.80 159.60Q253.80 146.80 259.70 137.40Q265.60 128 276.10 122.70Q286.60 117.40 300.60 117.40Q314.60 117.40 325.10 122.70Q335.60 128 341.50 137.40Q347.40 146.80 347.40 159.60Q347.40 172.20 341.50 181.80Q335.60 191.40 325.10 196.70Q314.60 202 300.60 202M300.60 176Q306.40 176 309.90 171.60Q313.40 167.20 313.40 159.60Q313.40 152 309.90 147.70Q306.40 143.40 300.60 143.40Q294.80 143.40 291.30 147.70Q287.80 152 287.80 159.60Q287.80 167.20 291.30 171.60Q294.80 176 300.60 176" fill="#1B3A4C"/>
</g>
</svg>
